<svg width="256" height="256" viewBox="0 0 256 256" fill="none" xmlns="http://www.w3.org/2000/svg">
<path d="M12.6644 138.84V127.32L74.5844 91.464V103.416L23.4644 132.36V133.512L74.5844 162.456V174.696L12.6644 138.84ZM182.472 162.744L233.592 133.8V132.648L182.472 103.704V91.464L244.392 127.32V138.84L182.472 174.696V162.744Z" fill="black"/>
<path d="M94.5787 169.95C97.7083 161.139 109.867 153.788 118.713 158.805C127.559 163.823 126.548 180.27 118.93 188.208C111.312 196.146 82.7689 216.923 90.3989 203.921C98.0289 190.919 90.6666 180.964 94.5787 169.95Z" fill="black"/>
<path d="M121.441 149.687C136.882 156.38 179 49.4939 163.652 44.1955C148.304 38.8971 106 142.994 121.441 149.687Z" fill="black"/>
</svg>
