<svg width="1248" height="238" viewBox="0 0 1248 238" fill="none" xmlns="http://www.w3.org/2000/svg">
<path d="M170.578 155.896L100.954 127.672V116.224L170.506 88.216L175.186 99.664L119.242 121.912L175.186 144.376L170.578 155.896Z" fill="black"/>
<path d="M194.53 169L233.698 68.2H251.194L291.37 169H273.154L263.866 144.952H221.17L212.242 169H194.53ZM225.346 131.056H259.546L242.122 87.136L225.346 131.056ZM302.438 169V97.72H318.278V106.792C321.254 102.808 324.71 99.952 328.646 98.224C332.582 96.448 336.662 95.56 340.886 95.56C347.414 95.56 352.814 96.856 357.086 99.448C361.358 102.04 364.526 105.376 366.59 109.456C368.702 113.536 369.758 117.736 369.758 122.056V169H353.918V126.952C353.918 121.864 352.382 117.784 349.31 114.712C346.286 111.64 342.062 110.104 336.638 110.104C333.086 110.104 329.918 110.896 327.134 112.48C324.398 114.064 322.238 116.272 320.654 119.104C319.07 121.888 318.278 125.152 318.278 128.896V169H302.438ZM389.592 169V97.72H405.432V106.792C408.408 102.808 411.864 99.952 415.8 98.224C419.736 96.448 423.816 95.56 428.04 95.56C434.568 95.56 439.968 96.856 444.24 99.448C448.512 102.04 451.68 105.376 453.744 109.456C455.856 113.536 456.912 117.736 456.912 122.056V169H441.072V126.952C441.072 121.864 439.536 117.784 436.464 114.712C433.44 111.64 429.216 110.104 423.792 110.104C420.24 110.104 417.072 110.896 414.288 112.48C411.552 114.064 409.392 116.272 407.808 119.104C406.224 121.888 405.432 125.152 405.432 128.896V169H389.592ZM496.545 171.16C491.601 171.16 487.257 170.248 483.513 168.424C479.769 166.552 476.841 163.936 474.729 160.576C472.665 157.168 471.633 153.16 471.633 148.552C471.633 144.664 472.617 141.16 474.585 138.04C476.553 134.872 479.601 132.256 483.729 130.192C487.905 128.128 493.257 126.76 499.785 126.088C506.313 125.368 514.161 125.464 523.329 126.376L523.617 137.32C517.089 136.408 511.473 136.024 506.769 136.168C502.065 136.312 498.201 136.912 495.177 137.968C492.201 138.976 489.993 140.344 488.553 142.072C487.161 143.752 486.465 145.696 486.465 147.904C486.465 151.36 487.689 154.024 490.137 155.896C492.633 157.768 496.041 158.704 500.361 158.704C504.057 158.704 507.369 158.032 510.297 156.688C513.225 155.344 515.529 153.448 517.209 151C518.937 148.552 519.801 145.672 519.801 142.36V123.424C519.801 120.256 519.129 117.52 517.785 115.216C516.441 112.864 514.401 111.04 511.665 109.744C508.929 108.448 505.521 107.8 501.441 107.8C497.697 107.8 494.001 108.376 490.353 109.528C486.705 110.632 483.225 112.384 479.913 114.784L475.449 103.12C479.913 100.096 484.569 97.96 489.417 96.712C494.265 95.464 498.921 94.84 503.385 94.84C510.009 94.84 515.673 95.896 520.377 98.008C525.129 100.072 528.777 103.216 531.321 107.44C533.865 111.616 535.137 116.896 535.137 123.28V169H520.881V160.576C518.481 163.984 515.145 166.6 510.873 168.424C506.601 170.248 501.825 171.16 496.545 171.16ZM590.703 169V68.2H625.335C634.983 68.2 642.783 70.36 648.735 74.68C654.687 78.952 657.663 85.264 657.663 93.616C657.663 96.832 656.895 99.88 655.359 102.76C653.871 105.592 651.927 108.088 649.527 110.248C647.127 112.408 644.631 113.992 642.039 115C647.511 116.68 652.071 119.752 655.719 124.216C659.415 128.68 661.263 134.176 661.263 140.704C661.263 146.224 659.871 151.12 657.087 155.392C654.303 159.616 650.343 162.952 645.207 165.4C640.071 167.8 633.975 169 626.919 169H590.703ZM606.831 156.328H624.183C631.095 156.328 636.231 154.984 639.591 152.296C642.951 149.56 644.631 145.456 644.631 139.984C644.631 134.56 642.927 130.432 639.519 127.6C636.159 124.768 630.951 123.352 623.895 123.352H606.831V156.328ZM606.831 111.256H622.815C626.703 111.256 630.063 110.632 632.895 109.384C635.727 108.136 637.935 106.336 639.519 103.984C641.103 101.632 641.895 98.8 641.895 95.488C641.895 90.784 640.215 87.184 636.855 84.688C633.543 82.144 628.791 80.872 622.599 80.872H606.831V111.256ZM705.945 171.16C699.561 171.16 694.281 169.888 690.105 167.344C685.977 164.752 682.881 161.344 680.817 157.12C678.753 152.896 677.721 148.288 677.721 143.296V97.72H693.561V140.344C693.561 145.24 695.001 149.176 697.881 152.152C700.809 155.08 704.841 156.544 709.977 156.544C713.337 156.544 716.337 155.8 718.977 154.312C721.617 152.776 723.705 150.64 725.241 147.904C726.825 145.168 727.617 142 727.617 138.4V97.72H743.457V169H729.201V160.576C726.417 163.936 723.105 166.552 719.265 168.424C715.473 170.248 711.033 171.16 705.945 171.16ZM764.048 169V97.72H779.888V107.584C782.576 103.12 785.84 100 789.68 98.224C793.52 96.4 797.648 95.488 802.064 95.488C803.504 95.488 804.872 95.56 806.168 95.704C807.464 95.848 808.712 96.064 809.912 96.352L807.824 112.696C806.384 112.264 804.92 111.928 803.432 111.688C801.944 111.448 800.456 111.328 798.968 111.328C793.448 111.328 788.888 113.032 785.288 116.44C781.688 119.8 779.888 124.384 779.888 130.192V169H764.048ZM821.67 169V97.72H837.51V106.792C840.486 102.808 843.942 99.952 847.878 98.224C851.814 96.448 855.894 95.56 860.118 95.56C866.646 95.56 872.046 96.856 876.318 99.448C880.59 102.04 883.758 105.376 885.822 109.456C887.934 113.536 888.99 117.736 888.99 122.056V169H873.15V126.952C873.15 121.864 871.614 117.784 868.542 114.712C865.518 111.64 861.294 110.104 855.87 110.104C852.318 110.104 849.15 110.896 846.366 112.48C843.63 114.064 841.47 116.272 839.886 119.104C838.302 121.888 837.51 125.152 837.51 128.896V169H821.67ZM932.872 171.088C926.968 171.088 921.448 170.248 916.312 168.568C911.176 166.888 906.856 164.632 903.352 161.8L909.328 150.208C912.64 152.8 916.36 154.84 920.488 156.328C924.664 157.816 928.768 158.56 932.8 158.56C937.456 158.56 941.08 157.744 943.672 156.112C946.264 154.48 947.56 152.2 947.56 149.272C947.56 146.488 946.432 144.448 944.176 143.152C941.968 141.808 937.744 140.416 931.504 138.976C922.528 137.104 916 134.464 911.92 131.056C907.888 127.6 905.872 122.824 905.872 116.728C905.872 112.456 907.048 108.688 909.4 105.424C911.8 102.112 915.088 99.52 919.264 97.648C923.44 95.776 928.264 94.84 933.736 94.84C939.064 94.84 944.08 95.608 948.784 97.144C953.488 98.632 957.568 100.744 961.024 103.48L955.408 115.144C953.632 113.56 951.568 112.192 949.216 111.04C946.864 109.888 944.368 109 941.728 108.376C939.136 107.704 936.544 107.368 933.952 107.368C929.92 107.368 926.632 108.16 924.088 109.744C921.592 111.28 920.344 113.416 920.344 116.152C920.344 118.984 921.544 121.072 923.944 122.416C926.344 123.76 930.472 125.104 936.328 126.448C945.544 128.464 952.144 131.152 956.128 134.512C960.112 137.872 962.104 142.528 962.104 148.48C962.104 153.04 960.88 157.024 958.432 160.432C955.984 163.792 952.552 166.408 948.136 168.28C943.768 170.152 938.68 171.088 932.872 171.088Z" fill="black"/>
<path d="M982.597 161.04C985.727 152.229 997.885 144.877 1006.73 149.894C1015.58 154.912 1014.57 171.359 1006.95 179.297C999.331 187.235 970.788 208.012 978.418 195.01C986.048 182.008 978.685 172.053 982.597 161.04Z" fill="black"/>
<path d="M1009.46 140.776C1024.9 147.469 1067.02 40.5831 1051.67 35.2847C1036.32 29.9864 994.019 134.083 1009.46 140.776Z" fill="black"/>
<path d="M1077.12 155.896L1072.51 144.376L1128.38 122.128L1072.51 99.664L1077.05 88.216L1146.67 116.44V127.816L1077.12 155.896Z" fill="black"/>
</svg>
