<svg width="600" height="301" viewBox="0 0 600 301" fill="none" xmlns="http://www.w3.org/2000/svg">
<path d="M592.024 161.335C592.024 161.335 623.199 70.7348 562.283 22.7488C531.284 -1.67006 412.969 1.53151 295.684 1.2626C182.491 1.00307 77.8192 -8.66927 31.2361 29.9112C-15.3469 68.4916 2.56998 120.869 7.58647 143.43C12.603 165.991 31.2362 193.564 31.2362 193.564C31.2362 193.564 14.7529 242.266 38.4027 269.84C62.0526 297.415 245.518 300.996 295.684 300.996C345.851 300.996 538.274 302.07 562.283 269.84C586.291 237.611 575.182 193.564 575.182 193.564L592.024 161.335Z" fill="black"/>
</svg>
