<svg width="838" height="421" viewBox="0 0 838 421" fill="none" xmlns="http://www.w3.org/2000/svg">
<path d="M826.086 225.263C826.086 225.263 869.586 98.7629 784.586 31.7628C741.331 -2.3318 576.24 2.13836 412.586 1.7629C254.64 1.40052 108.586 -12.1044 43.5856 41.7632C-21.4144 95.6309 3.58604 168.763 10.5858 200.263C17.5857 231.763 43.5857 270.263 43.5857 270.263C43.5857 270.263 20.5856 338.263 53.5856 376.763C86.5856 415.263 342.586 420.263 412.586 420.263C482.586 420.263 751.086 421.763 784.586 376.763C818.086 331.763 802.586 270.263 802.586 270.263L826.086 225.263Z" fill="#FFBB0A"/>
</svg>
